<svg width="41" height="41" viewBox="0 0 41 41" fill="none" xmlns="http://www.w3.org/2000/svg">
<path d="M20.5013 40.0832C9.68543 40.0832 0.917969 31.3157 0.917969 20.4998C0.917969 9.68396 9.68543 0.916504 20.5013 0.916504C31.3172 0.916504 40.0846 9.68396 40.0846 20.4998C40.0846 31.3157 31.3172 40.0832 20.5013 40.0832ZM20.5013 36.1665C24.6564 36.1665 28.6412 34.5159 31.5793 31.5778C34.5174 28.6398 36.168 24.6549 36.168 20.4998C36.168 16.3448 34.5174 12.3599 31.5793 9.42183C28.6412 6.48376 24.6564 4.83317 20.5013 4.83317C16.3462 4.83317 12.3614 6.48376 9.4233 9.42183C6.48523 12.3599 4.83464 16.3448 4.83464 20.4998C4.83464 24.6549 6.48523 28.6398 9.4233 31.5778C12.3614 34.5159 16.3462 36.1665 20.5013 36.1665ZM18.543 26.3748H22.4596V30.2915H18.543V26.3748ZM18.543 10.7082H22.4596V22.4582H18.543V10.7082Z" fill="#FF4934"/>
</svg>
