<svg width="26" height="27" viewBox="0 0 26 27" fill="none" xmlns="http://www.w3.org/2000/svg">
<path d="M23 19.25H25.5V21.75H0.5V19.25H3V10.5C3 7.84784 4.05357 5.3043 5.92893 3.42893C7.8043 1.55357 10.3478 0.5 13 0.5C15.6522 0.5 18.1957 1.55357 20.0711 3.42893C21.9464 5.3043 23 7.84784 23 10.5V19.25ZM20.5 19.25V10.5C20.5 8.51088 19.7098 6.60322 18.3033 5.1967C16.8968 3.79018 14.9891 3 13 3C11.0109 3 9.10322 3.79018 7.6967 5.1967C6.29018 6.60322 5.5 8.51088 5.5 10.5V19.25H20.5ZM9.25 24.25H16.75V26.75H9.25V24.25Z" fill="white"/>
</svg>
