<svg width="62" height="14" viewBox="0 0 62 14" fill="none" xmlns="http://www.w3.org/2000/svg">
<rect width="62" height="14" rx="2" fill="url(#paint0_radial_3590_11019)"/>
<path d="M11.16 4V11H10.09L6.23 6.26V11H4.94V4H6.01L9.87 8.74V4H11.16ZM16.3057 11.1C15.5924 11.1 14.949 10.9467 14.3757 10.64C13.8024 10.3267 13.3524 9.89667 13.0257 9.35C12.699 8.79667 12.5357 8.18 12.5357 7.5C12.5357 6.82 12.699 6.20667 13.0257 5.66C13.3524 5.10667 13.8024 4.67667 14.3757 4.37C14.949 4.05667 15.5924 3.9 16.3057 3.9C17.019 3.9 17.6624 4.05667 18.2357 4.37C18.809 4.67667 19.259 5.10333 19.5857 5.65C19.9124 6.19667 20.0757 6.81333 20.0757 7.5C20.0757 8.18667 19.9124 8.80333 19.5857 9.35C19.259 9.89667 18.809 10.3267 18.2357 10.64C17.6624 10.9467 17.019 11.1 16.3057 11.1ZM16.3057 9.96C16.7724 9.96 17.1924 9.85667 17.5657 9.65C17.939 9.43667 18.2324 9.14333 18.4457 8.77C18.659 8.39 18.7657 7.96667 18.7657 7.5C18.7657 7.03333 18.659 6.61333 18.4457 6.24C18.2324 5.86 17.939 5.56667 17.5657 5.36C17.1924 5.14667 16.7724 5.04 16.3057 5.04C15.839 5.04 15.419 5.14667 15.0457 5.36C14.6724 5.56667 14.379 5.86 14.1657 6.24C13.9524 6.61333 13.8457 7.03333 13.8457 7.5C13.8457 7.96667 13.9524 8.39 14.1657 8.77C14.379 9.14333 14.6724 9.43667 15.0457 9.65C15.419 9.85667 15.839 9.96 16.3057 9.96ZM31.4591 4L29.1391 11H27.7591L26.0291 5.82L24.2691 11H22.8791L20.5591 4H21.9091L23.6491 9.32L25.4591 4H26.6591L28.4291 9.35L30.2191 4H31.4591ZM35.4283 4H36.7283V9.9H40.3883V11H35.4283V4ZM41.4146 4H42.7146V11H41.4146V4ZM50.9591 4L47.9091 11H46.6291L43.5691 4H44.9791L47.3091 9.4L49.6591 4H50.9591ZM56.9478 9.91V11H51.6978V4H56.8078V5.09H52.9978V6.91H56.3778V7.98H52.9978V9.91H56.9478Z" fill="white"/>
<defs>
<radialGradient id="paint0_radial_3590_11019" cx="0" cy="0" r="1" gradientUnits="userSpaceOnUse" gradientTransform="translate(16 -3) rotate(24.7029) scale(36.7358 34.4605)">
<stop stop-color="#FF996D"/>
<stop offset="1" stop-color="#FF0000"/>
</radialGradient>
</defs>
</svg>
