<svg width="24" height="24" viewBox="0 0 24 24" fill="none" xmlns="http://www.w3.org/2000/svg">
<path d="M2 0.75H22C22.3315 0.75 22.6495 0.881696 22.8839 1.11612C23.1183 1.35054 23.25 1.66848 23.25 2V22C23.25 22.3315 23.1183 22.6495 22.8839 22.8839C22.6495 23.1183 22.3315 23.25 22 23.25H2C1.66848 23.25 1.35054 23.1183 1.11612 22.8839C0.881696 22.6495 0.75 22.3315 0.75 22V2C0.75 1.66848 0.881696 1.35054 1.11612 1.11612C1.35054 0.881696 1.66848 0.75 2 0.75ZM3.25 3.25V20.75H20.75V3.25H3.25ZM18.625 16.925L19.8187 18.1175V18.18H13.6675V18.1175L14.9225 16.925C15.0475 16.8 15.11 16.675 15.11 16.4862V9.08C15.11 8.765 15.11 8.32625 15.1737 7.95L11.0312 18.3062H10.9688L6.7 8.765C6.6375 8.515 6.575 8.515 6.5125 8.39V14.665C6.44875 15.105 6.5125 15.4812 6.7 15.8587L8.395 18.1175V18.18H3.875V18.1175L5.57 15.795C5.7575 15.42 5.82 14.98 5.7575 14.6025V7.7C5.7575 7.38625 5.695 7.00875 5.445 6.75875L4.31375 5.1875V5.125H8.7075L12.3475 13.2225L15.55 5.125H19.8187V5.1875L18.6263 6.56875C18.5013 6.69375 18.4387 6.8825 18.4387 7.0075V16.5487C18.4387 16.6737 18.5013 16.8625 18.6263 16.925H18.625Z" fill="white"/>
</svg>
